HIERARCHY
ROOT Hips
{
 OFFSET 0.000000 0.000000 0.000000
 CHANNELS 6 Xposition Yposition Zposition Yrotation Xrotation Zrotation
 JOINT Chest
 {
  OFFSET 0.000000 103.927959 -11.547555
  CHANNELS 3 Yrotation Xrotation Zrotation
  JOINT Chest2
  {
   OFFSET 0.000000 116.259650 0.000000
   CHANNELS 3 Yrotation Xrotation Zrotation
   JOINT Chest3
   {
    OFFSET 0.000000 106.135078 0.000000
    CHANNELS 3 Yrotation Xrotation Zrotation
    JOINT Chest4
    {
     OFFSET 0.000000 106.016608 0.000000
     CHANNELS 3 Yrotation Xrotation Zrotation
     JOINT Neck
     {
      OFFSET 0.000000 148.478086 0.000000
      CHANNELS 3 Yrotation Xrotation Zrotation
      JOINT Head
      {
       OFFSET 0.000000 98.684725 0.000000
       CHANNELS 3 Yrotation Xrotation Zrotation
       End Site
       {
        OFFSET 0.000000 183.657339 0.000000
       }
      }
     }
     JOINT RightCollar
     {
      OFFSET -32.301251 83.229558 0.000000
      CHANNELS 3 Yrotation Xrotation Zrotation
      JOINT RightShoulder
      {
       OFFSET -148.983121 0.000000 0.000000
       CHANNELS 3 Yrotation Xrotation Zrotation
       JOINT RightElbow
       {
        OFFSET 0.000000 -318.416921 0.000000
        CHANNELS 3 Yrotation Xrotation Zrotation
        JOINT RightWrist
        {
         OFFSET 0.000000 -260.384535 0.000000
         CHANNELS 3 Yrotation Xrotation Zrotation
         End Site
         {
          OFFSET 0.000000 -194.729091 0.000000
         }
        }
       }
      }
     }
     JOINT LeftCollar
     {
      OFFSET 32.301251 83.229558 0.000000
      CHANNELS 3 Yrotation Xrotation Zrotation
      JOINT LeftShoulder
      {
       OFFSET 148.983121 0.000000 0.000000
       CHANNELS 3 Yrotation Xrotation Zrotation
       JOINT LeftElbow
       {
        OFFSET 0.000000 -318.416921 0.000000
        CHANNELS 3 Yrotation Xrotation Zrotation
        JOINT LeftWrist
        {
         OFFSET 0.000000 -260.384535 0.000000
         CHANNELS 3 Yrotation Xrotation Zrotation
         End Site
         {
          OFFSET 0.000000 -194.729091 0.000000
         }
        }
       }
      }
     }
    }
   }
  }
 }
 JOINT RightHip
 {
  OFFSET -85.448433 0.000000 0.000000
  CHANNELS 3 Yrotation Xrotation Zrotation
  JOINT RightKnee
  {
   OFFSET 0.000000 -444.902608 0.000000
   CHANNELS 3 Yrotation Xrotation Zrotation
   JOINT RightAnkle
   {
    OFFSET 0.000000 -434.916856 0.000000
    CHANNELS 3 Yrotation Xrotation Zrotation
    JOINT RightToe
    {
     OFFSET 0.000000 -65.483541 148.093546
     CHANNELS 3 Yrotation Xrotation Zrotation
     End Site
     {
      OFFSET 0.000000 -15.533754 66.277348
     }
    }
   }
  }
 }
 JOINT LeftHip
 {
  OFFSET 85.448433 0.000000 0.000000
  CHANNELS 3 Yrotation Xrotation Zrotation
  JOINT LeftKnee
  {
   OFFSET 0.000000 -444.902608 0.000000
   CHANNELS 3 Yrotation Xrotation Zrotation
   JOINT LeftAnkle
   {
    OFFSET 0.000000 -434.916856 0.000000
    CHANNELS 3 Yrotation Xrotation Zrotation
    JOINT LeftToe
    {
     OFFSET 0.000000 -65.483541 148.093546
     CHANNELS 3 Yrotation Xrotation Zrotation
     End Site
     {
      OFFSET 0.000000 -15.533754 66.277348
     }
    }
   }
  }
 }
}
MOTION
Frames: 8
Frame Time: 0.016667
-1703.621079 477.447963 3547.666220 -119.557085 -6.059081 0.430823 -2.643753 9.638711 -4.245498 -0.896902 -1.515649 -1.820345 -0.898934 4.304071 -1.911633 -0.807192 9.065768 -1.442520 8.023756 13.649174 1.872281 14.406830 -10.480728 0.363588 2.993840 -5.394252 15.433654 59.231123 -47.457341 -51.075902 -17.199043 -51.285374 42.449770 -27.674657 -15.290893 0.619619 -8.402092 -0.261587 1.631945 -49.263217 -29.631595 78.841546 -10.555239 -55.023543 -15.858022 2.871580 -21.231858 -10.114732 8.585803 -47.901321 -11.834761 176.605486 43.573596 179.755907 -4.563697 -18.805340 37.208414 10.580839 -61.316535 -17.761233 -52.470876 -70.686819 60.935711 -176.305442 65.247938 -176.908901 3.728188 -28.069752 -6.243003 0.000000 0.000000 0.000000
-1703.200877 477.540666 3547.390295 -119.568427 -6.122967 0.433218 -2.636615 9.618872 -4.240791 -0.894222 -1.524563 -1.818586 -0.896233 4.295162 -1.909599 -0.805055 9.059078 -1.440997 7.986859 13.639430 1.912590 14.321991 -10.505716 0.452734 3.057832 -5.395529 15.432423 59.136121 -47.344368 -50.985812 -19.660310 -49.726140 44.303146 -30.287905 -10.582167 1.214713 -8.438063 -0.216307 1.669968 -49.325309 -29.554981 78.786929 -10.611055 -54.957759 -15.743611 2.895094 -21.246054 -10.133361 8.556968 -47.889926 -11.786190 176.639736 43.576620 179.795519 -4.529734 -18.733112 37.194387 10.625547 -61.348626 -17.824676 -52.384191 -70.632637 60.924747 -176.354823 65.298386 -176.959434 3.656610 -27.886055 -6.376084 -0.000000 -0.000000 0.000000
-1702.787137 477.633629 3547.136451 -119.579045 -6.189043 0.423758 -2.625195 9.597782 -4.235248 -0.889702 -1.534076 -1.816555 -0.891687 4.285656 -1.907107 -0.801506 9.051936 -1.439138 7.938995 13.608228 1.959297 14.215371 -10.571746 0.555992 3.124455 -5.389383 15.447296 59.011388 -47.267189 -50.893048 -21.866398 -48.133802 45.780325 -32.211974 -6.004291 1.494590 -8.480084 -0.159970 1.716090 -49.399076 -29.490936 78.717681 -10.662879 -54.922555 -15.616324 2.930409 -21.259815 -10.167263 8.538689 -47.874129 -11.748945 176.650194 43.584763 179.822354 -4.474842 -18.653300 37.194867 10.702831 -61.390322 -17.938394 -52.322120 -70.572433 60.940493 -176.414571 65.348478 -177.018814 3.594548 -27.666693 -6.553352 0.000000 -0.000000 0.000000
-1702.393721 477.711413 3546.930822 -119.586977 -6.252090 0.403749 -2.608465 9.574914 -4.229523 -0.882848 -1.544428 -1.814568 -0.884800 4.275315 -1.904422 -0.796193 9.044159 -1.437150 7.893576 13.568223 2.009936 14.112325 -10.654166 0.664893 3.161426 -5.367285 15.465105 58.879558 -47.190735 -50.805463 -23.318108 -46.826156 46.649833 -33.548026 -2.470239 1.522714 -8.527870 -0.101606 1.764355 -49.473973 -29.461965 78.639690 -10.692951 -54.905226 -15.524750 3.010444 -21.277026 -10.223911 8.501628 -47.850322 -11.699013 176.660375 43.594172 179.848930 -4.433104 -18.610460 37.197753 10.764687 -61.400448 -18.037831 -52.251447 -70.509355 60.936603 -176.505536 65.395856 -177.100778 3.546083 -27.518868 -6.723391 0.000000 0.000000 0.000000
-1702.009589 477.773949 3546.785302 -119.589044 -6.310941 0.369439 -2.581022 9.550530 -4.223934 -0.871231 -1.555548 -1.812874 -0.873138 4.264214 -1.901545 -0.787291 9.035798 -1.435050 7.850527 13.520368 2.067311 14.011510 -10.751527 0.784892 3.151118 -5.319914 15.488242 58.740556 -47.103006 -50.745173 -23.701814 -46.018627 46.747359 -34.194306 -0.593305 1.520986 -8.588565 -0.042669 1.818819 -49.554020 -29.487388 78.553704 -10.680107 -54.896467 -15.507633 3.174469 -21.301080 -10.313849 8.425200 -47.812994 -11.618868 176.681045 43.605614 179.881427 -4.418562 -18.634164 37.203129 10.794666 -61.352095 -18.105842 -52.153245 -70.442454 60.886713 -176.669508 65.442677 -177.237541 3.511424 -27.499140 -6.878209 0.000000 0.000000 0.000000
-1701.645780 477.821306 3546.687995 -119.588391 -6.366762 0.324563 -2.548286 9.524342 -4.218159 -0.857288 -1.567517 -1.811218 -0.859143 4.252265 -1.898468 -0.776631 9.026794 -1.432813 7.809797 13.463717 2.128585 13.913944 -10.865256 0.910609 3.111232 -5.256547 15.514091 58.594570 -47.015912 -50.690165 -23.462548 -45.528784 46.377330 -34.301533 0.227170 1.590653 -8.655002 0.018328 1.875374 -49.634868 -29.547911 78.459067 -10.645490 -54.905767 -15.526095 3.383422 -21.328045 -10.426154 8.330205 -47.767539 -11.526256 176.701416 43.618322 179.913658 -4.417053 -18.694865 37.210778 10.808741 -61.272246 -18.159135 -52.046854 -70.372680 60.817653 -176.865069 65.486631 -177.397251 3.491132 -27.550907 -7.026375 0.000000 0.000000 0.000000
-1701.349269 477.838257 3546.629347 -119.592563 -6.417830 0.281667 -2.525464 9.495016 -4.211902 -0.847817 -1.580796 -1.809167 -0.849629 4.239001 -1.895451 -0.769336 9.016817 -1.430590 7.784981 13.408028 2.182934 13.848993 -10.975304 1.017276 3.062513 -5.196517 15.521885 58.464992 -46.930221 -50.582259 -23.259451 -45.086188 46.037296 -34.352062 0.901401 1.631831 -8.705421 0.076722 1.915910 -49.693426 -29.607961 78.359521 -10.634601 -54.948769 -15.512610 3.552682 -21.351112 -10.536275 8.249272 -47.726744 -11.449988 176.712657 43.626145 179.939562 -4.420293 -18.748452 37.207985 10.807314 -61.200683 -18.183694 -51.956352 -70.306043 60.762765 -176.987689 65.518902 -177.496910 3.490088 -27.611879 -7.141482 0.000000 0.000000 0.000000
-1701.145011 477.816226 3546.612339 -119.602174 -6.460491 0.242941 -2.522403 9.460098 -4.203437 -0.847333 -1.596397 -1.805780 -0.849122 4.223401 -1.892013 -0.768764 9.005117 -1.427985 7.784916 13.352363 2.227082 13.834829 -11.082614 1.095066 3.012727 -5.147954 15.493694 58.367698 -46.838407 -50.378186 -23.348181 -44.563892 45.896323 -34.523654 1.766543 1.601411 -8.723327 0.127973 1.927312 -49.719058 -29.664055 78.243901 -10.679228 -55.045297 -15.409587 3.640932 -21.367186 -10.640081 8.199577 -47.694911 -11.406495 176.702209 43.627176 179.953896 -4.424737 -18.783022 37.191477 10.791686 -61.148092 -18.177948 -51.898368 -70.244738 60.740418 -176.967316 65.535354 -177.478030 3.524189 -27.669773 -7.210670 0.000000 0.000000 0.000000
